<?xml version="1.0" standalone="no"?>
<!DOCTYPE svg PUBLIC "-//W3C//DTD SVG 20010904//EN"
 "http://www.w3.org/TR/2001/REC-SVG-20010904/DTD/svg10.dtd">
<svg version="1.0" xmlns="http://www.w3.org/2000/svg"
 width="128.000000pt" height="128.000000pt" viewBox="0 0 128.000000 128.000000"
 preserveAspectRatio="xMidYMid meet">
<metadata>
Created by potrace 1.14, written by Peter Selinger 2001-2017
</metadata>
<g transform="translate(0.000000,128.000000) scale(0.100000,-0.100000)"
fill="#000000" stroke="none">
<path d="M141 1122 c-7 -14 4 -73 45 -228 30 -115 66 -255 80 -311 15 -57 30
-103 35 -103 5 0 9 4 9 10 0 5 17 47 39 92 21 46 55 120 76 165 l37 81 67 4
c36 2 87 2 113 0 l48 -3 -29 -57 c-16 -32 -49 -103 -74 -157 -25 -55 -56 -125
-70 -155 -14 -30 -27 -62 -29 -69 -2 -12 48 -14 321 -13 224 1 328 5 337 13
16 13 23 -20 -82 389 -65 250 -89 329 -105 343 -19 16 -55 17 -415 17 -372 0
-394 -1 -403 -18z"/>
<path d="M347 496 c-97 -213 -138 -313 -135 -333 l3 -28 294 -3 c265 -2 293
-1 287 14 -3 8 -6 20 -6 25 0 5 -82 9 -193 9 -195 0 -217 4 -217 37 0 18 182
430 241 546 l19 37 -77 0 -78 0 -138 -304z"/>
</g>
</svg>
