<svg width="240" height="324" viewBox="0 0 240 324" fill="none" xmlns="http://www.w3.org/2000/svg">
<path fill-rule="evenodd" clip-rule="evenodd" d="M186.456 183.12C183.524 169.222 173.123 158.436 159.136 153.064C156.447 151.542 153.841 145.015 150.227 143.819C149.648 143.628 150.562 145.153 150.227 145.244C149.032 145.569 147.693 145.603 146.374 144.429C144.016 142.333 143.276 136.207 141.842 133.439C134.281 118.837 115.401 124.55 112.872 140.692C111.108 141.842 108.615 142.855 106.696 143.781C104.719 144.735 102.98 147.047 100.943 147.873C99.1251 148.61 96.1301 148.088 94.2986 148.731C85.8745 151.687 78.7395 155.417 73.1458 162.975C71.9671 164.569 70.6384 166.528 69.5658 168.139C64.0361 174.507 60.1953 181.645 56.6578 189.302C46.7608 211.78 44.0688 236.667 41.6536 260.885C41.7085 265.122 38.8978 276.872 43.0549 278.904C42.8065 279.161 42.8965 279.679 43.3575 279.674C53.8982 279.568 64.4145 280.512 74.7918 282.346C79.7986 283.232 84.7786 284.446 89.8786 284.645C100.465 284.572 111.014 282.797 121.587 284.477C134.297 284.477 149.744 284.106 163.884 283.562C177.1 283.054 190.386 284.202 203.437 281.954C204.471 281.79 204.975 280.53 204.759 279.626C203.227 274.045 202.476 268.3 201.616 262.587C201.787 258.922 201.481 255.097 200.126 251.684C196.586 228.643 192.046 205.752 186.456 183.12Z" fill="white"/>
<path fill-rule="evenodd" clip-rule="evenodd" d="M182.191 213.406C181.912 214.761 181.521 216.116 181.001 217.399C180.501 218.637 179.746 219.747 179.227 220.971C179.157 221.135 179.043 221.26 178.906 221.355L178.948 221.688V221.688L178.988 222.021C179.247 224.267 179.539 226.507 179.791 228.753L179.914 229.877C180.41 234.567 181.194 239.233 181.802 243.91C182.398 248.49 183.004 253.07 183.653 257.644C184.322 262.359 185.005 267.068 185.801 271.764C186.138 273.748 186.489 275.729 186.854 277.71L187.137 279.225C190.044 279.925 190.838 283.978 187.878 285.475C186.535 286.151 184.809 285.988 183.701 284.925C182.551 283.818 182.503 281.82 182.236 280.32L181.979 278.925C180.054 268.442 178.383 257.837 177.602 247.205C177.401 244.46 177.232 241.713 177.122 238.963C177.018 236.376 177.068 233.79 177.028 231.204L177.015 230.498C176.954 227.74 177.004 224.986 177.076 222.228C177.084 221.892 177.099 221.556 177.116 221.218C177.019 221.104 176.949 220.968 176.92 220.837L176.882 220.664C176.787 220.218 176.894 219.696 177.237 219.377C177.384 217.498 177.579 215.621 177.632 213.744C177.636 213.59 177.858 213.595 177.871 213.744C177.995 215.342 178.244 216.944 178.494 218.544C180.097 217.255 181.282 215.129 181.982 213.349C182.032 213.22 182.221 213.267 182.191 213.406ZM144.251 138.711C144.518 139.928 145.044 141.021 145.749 142.038C146.085 142.524 146.468 142.976 146.926 143.354C147.319 143.677 147.767 143.889 148.185 144.17C148.794 144.075 149.429 144.305 149.856 144.753L149.789 144.098C149.768 143.887 150.118 143.845 150.159 144.049C152.007 153.375 153.693 162.706 155.152 172.098L155.791 176.246L156.393 180.14C157.392 186.629 158.359 193.115 159.087 199.651C160.056 208.374 160.872 217.12 161.468 225.878C162.065 234.698 162.433 243.524 162.695 252.36C162.76 254.588 162.83 256.813 162.898 259.041L163.349 256.378C163.799 253.714 164.241 251.048 164.62 248.372C165.978 238.796 167.064 229.152 167.594 219.493C168.08 210.655 167.918 201.641 165.67 193.03C165.103 190.864 164.41 188.731 163.574 186.653C162.763 184.633 161.656 182.76 160.783 180.77C159.769 178.453 159.465 176.268 159.987 173.774C160.443 171.601 161.244 169.558 161.387 167.321C161.656 163.171 160.306 159.15 158.398 155.518C157.895 154.56 157.365 153.615 156.811 152.679C155.136 149.849 153.247 147.122 151.287 144.508C151.181 144.369 151.405 144.215 151.519 144.329C153.306 146.096 155.26 147.833 156.868 149.762C157.65 150.701 158.413 151.658 159.135 152.641C167.062 153.966 173.873 158.905 178.529 165.428C183.813 172.829 186.486 181.738 188.463 190.511C190.663 200.26 192.518 210.099 194.493 219.897C196.538 230.035 198.572 240.174 200.63 250.31C201.653 255.342 202.675 260.375 203.696 265.409C204.213 267.958 204.756 270.501 205.325 273.041C205.616 274.343 205.929 275.643 206.199 276.949C206.503 278.422 206.22 279.364 205.223 280.447C204.856 280.848 204.275 280.842 203.818 280.628L203.676 280.561L203.538 280.495C202.973 280.217 202.53 279.929 202.179 279.312C201.792 278.633 201.731 277.881 201.598 277.126C201.353 275.738 201.11 274.349 200.865 272.959C200.499 270.879 200.101 268.805 199.695 266.732L197.662 256.371C197.12 253.608 196.577 250.846 196.031 248.085C194.081 238.21 192.129 228.338 190.177 218.466C188.303 208.987 186.644 199.442 184.511 190.018L184.389 189.487L184.266 188.957C182.358 180.833 179.692 172.974 174.856 166.089C171.133 160.795 165.963 156.067 159.875 153.674C160.304 154.292 160.716 154.922 161.109 155.564C163.576 159.597 165.378 164.384 164.956 169.186C164.749 171.532 163.857 173.837 163.941 176.202C164.02 178.303 165.319 180.148 166.217 181.976C168.256 186.119 169.73 190.521 170.681 195.038C172.589 204.107 172.583 213.438 171.925 222.644C171.211 232.652 169.855 242.657 168.311 252.567C167.518 257.65 166.464 262.691 165.657 267.766C165.258 270.268 164.715 272.764 164.239 275.254L164.013 276.443C163.886 277.103 163.754 277.761 163.602 278.412L163.509 278.802V278.872C163.504 279.352 163.373 279.749 163.162 280.066C162.873 280.994 162.513 281.899 162.036 282.767C161.791 283.211 161.436 283.46 161.049 283.551C160.66 284.441 159.779 285.126 158.728 285.122L144.891 285.069C136.855 285.037 128.818 284.984 120.782 284.94C118.754 284.929 116.728 284.891 114.702 284.839C112.802 284.786 110.981 284.557 109.103 284.321C106.982 284.054 105.832 282.552 106.149 280.432C106.219 279.965 106.295 279.5 106.367 279.035C105.944 279.174 105.442 279.109 105.102 278.777L104.783 278.465C104.341 278.027 103.945 277.598 103.665 277.014C103.375 276.414 103.141 275.78 102.885 275.167C102.334 273.848 101.797 272.525 101.275 271.196C100.23 268.537 99.1839 265.868 98.2119 263.181C96.2874 257.862 94.5844 252.462 93.1036 247.001C90.4628 237.257 88.5527 227.326 87.3485 217.306L87.0606 214.918L86.9769 214.212C86.5202 210.329 86.1359 206.385 86.3175 202.509C86.4297 200.083 86.8055 197.638 87.7121 195.372C88.5485 193.282 89.8393 191.494 91.0668 189.625L91.2073 189.41L91.3485 189.189C92.422 187.492 93.2761 185.718 93.3189 183.657C93.3623 181.565 92.7532 179.53 92.0723 177.572L91.9026 177.089L91.7887 176.77C90.34 172.723 88.6914 168.734 89.2351 164.331C90.0381 157.847 93.9675 152.62 98.9114 148.589C94.5147 149.46 90.1628 151.18 86.3219 153.362C81.7858 155.94 77.702 159.343 74.1802 163.183C67.5252 170.441 62.7738 179.149 58.8846 188.139C54.8133 197.549 51.7943 207.408 49.5191 217.397C47.2311 227.442 45.6994 237.648 44.6534 247.895C44.1318 252.994 43.7217 258.107 43.3818 263.222C43.2086 265.842 43.0776 268.467 42.8747 271.084C42.6719 273.698 42.5809 276.353 41.9428 278.897C41.645 280.083 39.6358 280.204 39.4205 278.897C38.9427 275.98 39.0763 272.964 39.2096 270.01L39.2217 269.742C39.3529 266.8 39.524 263.86 39.7266 260.92C40.1409 254.911 40.6943 248.911 41.4168 242.93C43.9499 221.934 48.6212 201.049 57.7839 181.883C62.098 172.857 67.6353 164.086 75.3381 157.568C79.0055 154.467 83.14 151.992 87.5957 150.2C91.5804 148.596 95.6283 147.837 99.8621 147.839C101.985 146.212 104.265 144.794 106.542 143.582C106.679 143.509 106.823 143.686 106.709 143.8C106.65 143.857 106.593 143.916 106.534 143.971C106.792 143.988 107.058 144.109 107.296 144.36C108.133 145.237 108.839 146.334 109.47 147.473C110.432 148.674 111.348 149.914 112.308 151.102C113.844 153.004 115.415 154.879 117.006 156.739C119.678 159.865 122.437 162.931 125.315 165.874L125.795 166.364C127.287 167.875 128.797 169.684 130.561 170.88L130.655 170.943C131.4 171.428 131.927 171.516 132.562 170.792C133.139 170.132 133.619 169.367 134.113 168.64L134.227 168.473C136.747 164.811 139.084 161.013 141.199 157.103C142.163 155.323 143.08 153.518 143.95 151.693L144.209 151.145C144.683 150.139 145.196 149.152 145.587 148.116C145.677 147.873 145.766 147.63 145.853 147.389C144.522 146.516 143.491 144.627 143.117 143.147C142.728 141.611 142.925 140.034 143.618 138.629C143.748 138.364 144.188 138.43 144.251 138.711ZM78.5918 201.15C78.4077 206.992 78.2959 212.84 78.021 218.677L77.9262 220.67C78.3548 221.148 78.6062 221.7 78.4055 222.456C78.3276 222.746 78.0971 223.008 77.8098 223.105L77.7202 224.958C77.3125 233.295 76.8345 241.614 75.9612 249.93C74.8689 260.337 73.6055 270.727 72.3445 281.115C72.1649 282.586 71.1422 283.752 69.5513 283.537C67.9417 283.319 67.2889 281.918 67.5001 280.457C68.3304 274.728 69.1288 268.993 69.8283 263.245L70.6248 256.695C71.6235 248.508 72.6457 240.322 73.8234 232.161C74.3156 228.75 74.8269 225.341 75.3401 221.932L75.1607 221.7C74.4274 220.747 73.6689 219.815 72.9189 218.876C71.4783 217.067 70.0565 215.272 68.736 213.379C68.6703 213.284 68.8036 213.144 68.8985 213.216C70.7492 214.584 72.5008 216.046 74.2628 217.532L75.8051 218.838C76.6924 212.948 77.5713 207.055 78.3548 201.15C78.3741 201.002 78.5959 200.991 78.5918 201.15ZM105.213 145.244C104.1 146.294 102.961 147.321 101.839 148.365L101.428 148.75L101.019 149.136C99.0474 151.006 97.1581 152.954 95.5839 155.19C92.6938 159.296 90.9719 164.303 92.1738 169.317C93.1712 173.469 95.4593 177.234 96.074 181.49C96.3823 183.623 96.2325 185.766 95.4295 187.78C94.6098 189.834 93.2999 191.595 92.1231 193.449C89.5668 197.477 89.2182 201.898 89.4719 206.565C89.7381 211.439 90.2978 216.314 90.9888 221.144C92.3872 230.929 94.4957 240.613 97.2865 250.097C98.6832 254.846 100.333 259.493 101.975 264.16C102.792 266.483 103.745 268.751 104.727 271.008C105.245 272.196 105.775 273.377 106.314 274.556C106.115 272.891 106.115 271.181 106.018 269.526C105.879 267.155 105.701 264.788 105.539 262.419C105.207 257.61 104.911 252.798 104.647 247.985C103.711 230.824 103.023 213.647 103.073 196.458C103.099 187.863 103.274 179.267 103.644 170.68C103.817 166.636 104.153 162.596 104.456 158.558L104.521 157.692C104.789 154.068 105.11 150.435 105.661 146.842C105.498 146.473 105.356 146.1 105.251 145.717L105.213 145.573L105.241 145.578C105.216 145.465 105.207 145.354 105.213 145.244ZM114.843 130.475C114.866 130.375 115.008 130.384 115.033 130.475C115.661 132.588 115.439 134.913 114.898 137.039C114.606 138.191 114.192 139.309 113.692 140.387L113.516 140.764C113.087 141.682 112.604 142.628 111.769 143.2C111.421 143.439 110.797 143.454 110.449 143.2L110.271 143.065C110.241 143.042 110.213 143.019 110.184 142.995C109.859 142.722 109.699 142.12 109.849 141.723C110.235 140.698 111.112 139.945 111.718 139.032C112.255 138.221 112.73 137.365 113.125 136.475C113.977 134.549 114.359 132.506 114.843 130.475Z" fill="black"/>
<path fill-rule="evenodd" clip-rule="evenodd" d="M130.31 50.4506C139.769 50.4506 151.118 55.0379 152.083 55.1296L152.109 55.131C152.617 55.131 154.6 56.6429 158.06 59.6665L154.313 66.978L154.616 67.2677C156.067 68.6595 157.306 69.9281 158.284 70.9281C166.268 79.0935 167.703 111.153 165.821 122.333C163.94 133.514 160.455 144.454 144.23 144.454C128.005 144.454 109.954 134.694 107.173 131.655C105.319 129.629 103.237 128.658 100.927 128.743C100.832 128.623 100.737 128.503 100.644 128.384L100.304 128.336C97.106 127.873 94.8145 127.249 93.4297 126.465C90.7249 124.934 87.7518 116.886 87.7518 115.113C87.7518 113.358 83.3125 100.59 83.2237 99.2389L83.2224 99.2014C83.2224 98.0719 77.4229 92.8796 77.4229 91.2306C77.4229 89.5816 76.2539 89.6816 77.4229 83.8708L77.7625 82.1638C79.0065 75.977 81.4413 65.7326 90.7249 61.2811C100.927 56.3893 120.756 50.4506 130.31 50.4506Z" fill="white"/>
<path fill-rule="evenodd" clip-rule="evenodd" d="M89.1501 61.0513C94.2381 55.6488 123.123 47.2924 137.737 49.0638L138.175 49.1206C139.341 49.2685 140.491 49.4926 141.625 49.7969C145.291 50.6535 149.078 51.9506 152.108 54.1171C154.637 55.8895 162.615 58.7839 160.263 63.4205C161.135 65.0731 161.461 67.1147 160.871 68.7423C160.797 69.3045 160.624 69.8223 160.402 70.3592C162.265 73.109 163.74 76.2188 164.934 79.1767C167.02 86.6207 168.318 94.3675 168.509 101.962C169.141 116.392 167.56 133.628 154.997 142.958C147.408 148.871 135.521 149.069 126.992 141.738C126.508 141.166 124.232 139.619 124.992 139.348C125.218 139.587 125.45 139.819 125.687 140.048C125.676 140.022 125.674 139.997 125.679 139.969L125.456 139.768C125.037 139.38 124.494 138.817 125.112 138.928C125.14 138.959 125.169 138.987 125.199 139.018C125.33 139.097 125.429 139.165 125.506 139.225L125.545 139.257L125.533 139.244C125.177 138.864 124.963 138.477 125.496 138.724L125.566 138.758C125.803 139.008 126.044 139.247 126.289 139.479C126.285 139.452 126.289 139.424 126.304 139.395L126.075 139.174C125.852 138.955 125.886 138.954 125.995 138.777C125.521 138.113 126.406 138.508 126.468 138.767C127.022 138.636 127.508 139.676 127.865 139.803C143.499 151.826 166.186 141.157 165.819 107.653L165.813 106.998C165.705 96.2844 164.804 85.2732 160.375 75.5753C159.944 74.6411 159.462 73.7323 158.932 72.8531C158.567 72.1937 158.176 71.5512 157.755 70.9256C156.578 70.8305 155.416 70.6149 154.271 70.281C153.878 70.1816 153.49 70.0717 153.101 69.9428C147.422 70.2526 141.87 70.5897 136.175 70.9093L134.396 71.0201C129.572 71.3304 124.583 71.8273 120.69 74.8123C116.871 77.5299 116.853 82.8886 113.583 85.8723C108.921 89.0381 108.887 91.8928 107.989 96.5581C108.055 100.075 110.493 105.185 106.02 106.665C106.775 107.741 105.723 107.224 105.64 106.847C105.631 106.849 105.623 106.851 105.617 106.851C106.289 108.101 105.301 107.314 105.213 106.912C105.16 106.897 105.107 106.859 105.055 106.807C105.732 107.902 104.637 107.135 104.702 106.935C103.393 104.922 100.698 104.61 98.7987 105.143C98.7755 105.215 98.6912 105.221 98.6384 105.183C90.5623 106.934 92.646 123.66 100.922 122.043C101.276 121.97 101.268 122.141 101.338 122.157C101.147 121.655 101.686 121.859 101.68 121.965L101.713 121.963C101.739 121.961 101.729 121.958 101.748 121.965C101.563 120.938 102.603 122.426 102.521 122.487C102.553 122.468 102.589 122.457 102.621 122.453L102.585 122.355C102.412 121.895 102.427 122.086 102.428 121.823C102.299 121.497 102.289 121.64 102.32 121.428C102.775 121.074 102.91 122.146 103.062 122.225C102.801 121.861 103.009 121.564 103.255 121.761C105.119 125.684 107.526 129.369 110.638 132.272C110.979 132.541 111.323 132.805 111.68 133.054C113.003 134.207 115.034 134.949 116.273 135.971C116.273 135.988 116.264 136.009 116.252 136.03L116.28 136.056V136.056L116.309 136.083L116.74 136.29C116.867 136.398 116.981 136.518 117.082 136.651C117.19 136.776 117.285 136.913 117.365 137.059C117.405 137.237 117.317 137.311 117.148 137.235C117.073 137.209 117 137.18 116.926 137.152C116.93 137.159 116.932 137.163 116.936 137.167C116.961 137.204 117.125 137.584 116.936 137.522L116.913 137.514C116.809 137.476 116.706 137.433 116.605 137.393C116.725 137.543 116.835 137.706 116.932 137.843C117.036 137.951 117.099 138.078 117.124 138.222C117.12 138.302 117.076 138.336 116.995 138.325C116.873 138.285 116.752 138.243 116.632 138.198L116.666 138.264C116.751 138.432 116.873 138.713 116.657 138.619C116.473 138.562 116.296 138.496 116.119 138.425C116.104 138.454 116.074 138.465 116.015 138.437C115.451 138.236 114.906 137.991 114.384 137.702C113.926 137.368 113.463 137.04 113.002 136.708C112.569 136.448 112.151 136.159 111.752 135.833C109.08 134.107 106.741 131.914 104.886 129.472C101.782 132.16 95.5775 129.592 91.7394 127.487C88.3446 125.606 87.0102 122.128 86.6652 118.378C85.948 113.33 81.824 111.602 82.1109 100.525C82.1046 100.527 82.098 100.527 82.0896 100.527C81.9396 100.483 81.794 100.424 81.6567 100.348C81.5151 100.28 81.382 100.2 81.2572 100.102L81.103 99.889V99.889C81.0229 99.8446 80.9511 99.7981 80.8961 99.7516L80.8676 99.7884C80.7775 99.8973 80.8381 99.7335 80.8433 99.7009L80.5754 99.3364C79.9401 98.4688 79.2432 97.4952 78.6755 96.7167L78.6576 96.7483C78.6448 96.7722 78.638 96.7894 78.644 96.797C77.293 94.8551 76.0224 92.5095 75.6694 90.2388C75.2525 88.4896 75.4154 86.6872 75.779 85.067C77.338 79.3933 82.4447 66.5542 89.1501 61.0513ZM125.815 139.516L125.731 139.44L125.805 139.534C125.844 139.582 125.884 139.625 125.949 139.669C125.945 139.655 125.945 139.64 125.947 139.623C125.903 139.59 125.859 139.554 125.815 139.516ZM137.672 51.9146C127.762 51.0623 118.015 53.2463 108.558 55.8901L107.905 56.0777C102.528 57.6126 96.8424 58.9938 92.2982 62.2792C85.9494 67.1439 82.671 74.8827 79.81 82.0278C77.3118 87.3365 78.5889 93.3226 82.3537 97.0295C82.7454 93.3458 83.4132 89.77 84.4568 86.2229C84.6747 85.6687 84.5099 85.4872 84.9793 85.4149C85.6883 94.9739 82.1963 102.036 89.1068 113.365C92.1054 118.711 88.6342 122.622 97.1018 125.435L97.331 125.522C99.0951 126.188 101.022 126.714 102.749 126.342L102.595 126.09C102.437 125.83 102.389 125.704 102.618 125.593C102.612 125.581 102.604 125.568 102.595 125.553C102.41 125.202 102.23 124.847 102.059 124.488C101.989 124.511 101.919 124.528 101.847 124.547C101.894 124.634 101.9 124.721 101.769 124.75C101.304 124.91 100.826 124.974 100.336 124.944L100.231 124.936C99.6785 124.902 99.3301 124.802 99.0185 124.708C98.9151 124.691 98.8116 124.674 98.71 124.653C97.7075 124.431 96.6463 123.865 95.9595 123.305C88.1304 118.856 88.9395 103.713 98.5898 102.282C98.7878 92.7471 103.321 76.6616 110.844 67.5763C117.644 59.2193 136.209 55.5972 149.125 56.8744C149.314 56.9367 149.502 56.9997 149.69 57.0633C151.683 57.2404 153.582 58.1285 155.576 58.5411C154.144 57.4676 152.52 56.7526 150.847 56.145C147.514 54.1053 143.692 53.0016 140 52.2232C139.236 52.0351 138.46 51.9315 137.672 51.9146ZM98.1481 109.941C98.667 109.659 98.6076 109.931 98.727 109.852C102.459 109.547 106.484 112.816 108.57 115.542C108.405 115.713 107.959 115.206 107.881 115.125C107.871 115.136 107.858 115.144 107.845 115.148L107.903 115.231C108.749 116.444 107.073 115.016 106.916 114.722C106.888 114.736 106.861 114.745 106.829 114.738C106.962 114.869 107.368 115.209 107.438 115.451L107.545 115.54C108.56 116.409 108.476 117.063 107.324 115.829C107.351 115.886 107.361 115.939 107.342 115.981L107.382 116.008C107.949 116.404 108.414 117.507 107.23 116.374C107.354 117.202 106.057 115.602 106.016 115.613C103.772 113.852 100.47 112.139 97.6558 111.908L97.559 111.897C97.0426 111.831 96.7985 111.678 96.9798 111.34C96.3439 111.189 96.4928 110.875 96.7939 110.886C96.3454 110.591 96.7491 110.308 97.0094 110.418C96.8304 109.923 97.5481 110.253 97.6136 110.184C97.9861 109.609 98.0864 110.089 98.1481 109.941ZM90.3249 79.2211C92.1175 78.5642 97.4125 80.5306 96.9889 83.1348C96.7366 83.7328 95.9055 84.0754 95.3214 83.7378L94.5589 83.2256C93.2321 82.3366 92.0355 81.5572 90.6109 80.7819C89.8356 80.397 89.5018 79.5799 90.3249 79.2211ZM100.524 75.351L99.8315 74.9003C96.0954 72.4542 90.8139 68.7478 100.18 72.5825C101.248 73.0405 102.666 73.3115 103.249 74.3285C104.164 76.2029 101.756 76.3289 100.524 75.351ZM100.944 64.3758C100.644 63.2377 104.374 64.5732 105.46 64.9253L105.626 64.9878C106.682 65.3815 107.893 65.7468 108.525 66.6588C109.265 67.9189 107.767 68.1799 106.838 67.6107C104.936 66.3667 102.849 65.4281 100.944 64.3758ZM110.43 59.0741C108.33 56.7802 113.949 58.9777 114.791 59.5876L114.815 59.6056C115.443 60.048 115.316 61.0007 114.726 61.2806C113.047 61.3125 111.811 59.9125 110.43 59.0741ZM119.984 56.5609C116.646 54.161 121.043 55.3025 122.571 56.243C123.612 57.1613 122.539 58.7116 119.984 56.5609Z" fill="black"/>
<path fill-rule="evenodd" clip-rule="evenodd" d="M138.834 118.841C140.016 116.896 142.535 121.66 142.803 122.479C143.04 123.205 143.197 123.948 143.276 124.7C144.192 124.906 145.144 124.906 146.083 124.726C147.478 124.458 148.331 123.708 149.544 123.063C150.381 122.618 151.437 123.14 151.873 123.879C152.385 124.748 152.058 125.65 151.385 126.298C150.107 127.527 147.592 127.809 145.924 127.483C144.968 127.296 144.092 126.937 143.319 126.416C143.314 126.513 143.31 126.611 143.303 126.708L143.288 126.876C143.16 128.239 142.785 129.953 141.727 130.839C139.992 132.294 137.85 129.497 139.536 128.044L139.588 128C140.637 127.153 140.865 124.88 140.809 123.628C140.772 122.811 140.623 121.983 140.365 121.205L140.312 121.05C140.234 120.83 139.388 118.744 139.082 119.01L139.067 119.025C138.941 119.176 138.737 119 138.834 118.841ZM148.27 107.866C149.866 108.836 152.297 111.098 150.58 113.503C148.56 115.624 145.652 113.193 144.218 112.093C142.889 111.241 141.396 113.433 142.629 114.428C152.986 122.099 157.189 108.12 149.077 106.726C148.184 106.572 147.853 107.566 148.27 107.866ZM131.235 98.8993C132.794 98.6227 134.391 99.0105 135.681 99.9231L135.779 99.9935C137.022 100.903 138.413 102.5 137.7 104.067C137.413 104.697 136.556 104.795 136.012 104.51C135.106 104.035 134.942 102.866 134.134 102.219C133.471 101.689 132.579 101.367 131.725 101.445C129.72 101.627 128.487 103.605 127.864 105.31C127.784 105.528 127.464 105.613 127.339 105.379C125.871 102.633 128.47 99.3901 131.235 98.8993ZM156.209 97.8631C159.196 97.6169 162.691 100.714 161.905 103.868C161.528 105.381 159.284 105.338 158.885 103.868C158.666 103.059 158.688 102.344 158.106 101.672C157.625 101.117 156.943 100.795 156.209 100.845C155.4 100.899 154.654 101.304 154.087 101.872C153.575 102.385 153.269 103.136 152.739 103.59C152.608 103.702 152.434 103.709 152.305 103.59C151.392 102.748 151.94 100.996 152.519 100.117C153.347 98.8596 154.695 97.988 156.209 97.8631ZM125.547 93.3059C127.463 91.6092 130.945 89.9706 133.528 90.8056C135.014 91.2856 135.661 93.68 134.003 94.4389C132.083 95.3177 129.869 94.9601 127.915 95.8711C127.094 96.2538 126.322 96.7321 125.75 97.4336C125.3 97.9865 124.842 98.7139 124.191 99.0326C124.02 99.1166 123.788 99.1187 123.651 98.9631C122.224 97.348 124.301 94.4094 125.547 93.3059ZM152.916 90.7214C154.1 90.3889 155.414 90.3957 156.616 90.6045C157.819 90.8133 159.04 91.3119 160.022 92.0392L160.136 92.1243C161.207 92.9323 162.486 94.1078 162.418 95.5391C162.361 96.7343 161.104 97.5427 160.019 96.9163C159.134 96.4055 158.718 95.3821 157.969 94.7007C157.351 94.1383 156.625 93.6949 155.851 93.3842C154.99 93.0391 154.129 92.8774 153.205 92.862C152.494 92.8501 151.779 93.0835 151.082 93.1581C151.139 93.276 150.588 93.221 150.272 93.1164C150.038 93.0167 150.036 92.7206 150.117 92.5284C150.52 91.5767 151.984 90.9826 152.916 90.7214Z" fill="black"/>
</svg>
