<svg xmlns="http://www.w3.org/2000/svg" version="1.1" xmlns:xlink="http://www.w3.org/1999/xlink" xmlns:svgjs="http://svgjs.dev/svgjs" width="1000" height="1000" viewBox="0 0 1000 1000"><rect width="1000" height="1000" fill="#ffffff"></rect><g transform="matrix(0.7,0,0,0.7,149.57575757575756,393.0187822174909)"><svg viewBox="0 0 396 121" data-background-color="#c8c8c8" preserveAspectRatio="xMidYMid meet" height="305" width="1000" xmlns="http://www.w3.org/2000/svg" xmlns:xlink="http://www.w3.org/1999/xlink"><g id="tight-bounds" transform="matrix(1,0,0,1,0.2400000000000091,0.13104145987634297)"><svg viewBox="0 0 395.52 120.73791708024731" height="120.73791708024731" width="395.52"><g><svg viewBox="0 0 645.7796270060575 197.13310845866306" height="120.73791708024731" width="395.52"><g><rect width="8.131843072162075" height="197.13310845866306" x="220.84023662457062" y="0" fill="#000000" opacity="1" stroke-width="0" stroke="transparent" fill-opacity="1" class="rect-o-0" data-fill-palette-color="primary" rx="1%" id="o-0" data-palette-color="#6b7280"></rect></g><g transform="matrix(1,0,0,1,250.25962700605749,0.4903808668125862)"><svg viewBox="0 0 395.52 196.1523467250379" height="196.1523467250379" width="395.52"><g id="textblocktransform"><svg viewBox="0 0 395.52 196.1523467250379" height="196.1523467250379" width="395.52" id="textblock"><g><svg viewBox="0 0 395.52 196.1523467250379" height="196.1523467250379" width="395.52"><g transform="matrix(1,0,0,1,0,0)"><svg width="395.52" viewBox="2.3999996185302734 -33.75 150.1300048828125 71.44000244140625" height="196.1523467250379" data-palette-color="#6b7280"><svg></svg><svg></svg><g class="wordmark-text-0" data-fill-palette-color="primary" id="text-0"><path xmlns="http://www.w3.org/2000/svg" d="M23.33-8.85v0c0 2.933-1.057 5.217-3.17 6.85-2.113 1.64-5.07 2.46-8.87 2.46-3.8 0-6.763-0.507-8.89-1.52v0-3.74c3 1.247 6.083 1.87 9.25 1.87v0c2.547 0 4.48-0.48 5.8-1.44 1.327-0.96 1.99-2.333 1.99-4.12v0c0-1.147-0.233-2.083-0.7-2.81-0.46-0.727-1.237-1.41-2.33-2.05-1.1-0.64-2.743-1.347-4.93-2.12v0c-3.087-1.093-5.3-2.4-6.64-3.92-1.34-1.513-2.01-3.527-2.01-6.04 0-2.513 0.96-4.527 2.88-6.04v0c1.96-1.52 4.553-2.28 7.78-2.28 3.227 0 6.23 0.607 9.01 1.82v0l-1.22 3.39c-2.747-1.16-5.407-1.74-7.98-1.74v0c-2.06 0-3.667 0.44-4.82 1.32-1.153 0.887-1.73 2.107-1.73 3.66v0c0 1.18 0.207 2.123 0.62 2.83 0.413 0.707 1.133 1.39 2.16 2.05v0c1.06 0.64 2.61 1.313 4.65 2.02v0c3.507 1.247 5.9 2.587 7.18 4.02v0c1.313 1.413 1.97 3.257 1.97 5.53zM33.72-21.16v0 21.16h-3.56v-33.27h5.81l10.54 27.46h0.18l10.62-27.46h5.78v33.27h-3.86v-21.44c0-2.56 0.11-5.23 0.33-8.01v0h-0.21l-11.37 29.45h-3.11l-11.28-29.47h-0.17c0.2 2.32 0.3 5.09 0.3 8.31zM80.94-24.37l-3.92 10.32h10.75l-3.87-10.32c-0.527-1.413-1.04-3.013-1.54-4.8v0c-0.307 1.38-0.78 2.98-1.42 4.8zM84.05-33.39l13.07 33.39h-4l-4.14-10.57h-13.32l-4.1 10.57h-3.92l13.15-33.39zM120.45-8.85v0c0 2.933-1.057 5.217-3.17 6.85-2.113 1.64-5.073 2.46-8.88 2.46-3.8 0-6.76-0.507-8.88-1.52v0-3.74c3 1.247 6.083 1.87 9.25 1.87v0c2.547 0 4.48-0.48 5.8-1.44 1.327-0.96 1.99-2.333 1.99-4.12v0c0-1.147-0.233-2.083-0.7-2.81-0.46-0.727-1.24-1.41-2.34-2.05-1.093-0.64-2.737-1.347-4.93-2.12v0c-3.08-1.093-5.29-2.4-6.63-3.92-1.34-1.513-2.01-3.527-2.01-6.04 0-2.513 0.96-4.527 2.88-6.04v0c1.953-1.52 4.543-2.28 7.77-2.28 3.227 0 6.233 0.607 9.02 1.82v0l-1.22 3.39c-2.747-1.16-5.41-1.74-7.99-1.74v0c-2.053 0-3.657 0.44-4.81 1.32-1.153 0.887-1.73 2.107-1.73 3.66v0c0 1.18 0.207 2.123 0.62 2.83 0.413 0.707 1.133 1.39 2.16 2.05v0c1.06 0.64 2.61 1.313 4.65 2.02v0c3.507 1.247 5.9 2.587 7.18 4.02v0c1.313 1.413 1.97 3.257 1.97 5.53zM148.66-33.27h3.87v33.27h-3.87v-15.65h-17.52v15.65h-3.86v-33.27h3.86v14.16h17.52z" fill="#000000" fill-rule="nonzero" stroke="none" stroke-width="1" stroke-linecap="butt" stroke-linejoin="miter" stroke-miterlimit="10" stroke-dasharray="" stroke-dashoffset="0" font-family="none" font-weight="none" font-size="none" text-anchor="none" style="mix-blend-mode: normal" data-fill-palette-color="primary" opacity="1"></path><path xmlns="http://www.w3.org/2000/svg" d="M8.44 33.77h14.66v3.46h-18.52v-33.27h18.52v3.44h-14.66v10.72h13.78v3.41h-13.78zM39.38 7.35h-5.03v12.72h5.31c2.713 0 4.71-0.537 5.99-1.61 1.28-1.067 1.92-2.697 1.92-4.89 0-2.193-0.647-3.777-1.94-4.75-1.3-0.98-3.383-1.47-6.25-1.47zM41.28 23.4h-6.93v13.83h-3.86v-33.27h9.12c4.06 0 7.067 0.78 9.02 2.34 1.96 1.56 2.94 3.917 2.94 7.07v0c0 4.413-2.227 7.387-6.68 8.92v0l9.03 14.94h-4.58zM68.17 7.35h-5.03v12.72h5.31c2.713 0 4.71-0.537 5.99-1.61 1.287-1.067 1.93-2.697 1.93-4.89 0-2.193-0.65-3.777-1.95-4.75-1.3-0.98-3.383-1.47-6.25-1.47zM70.07 23.4h-6.93v13.83h-3.86v-33.27h9.12c4.06 0 7.07 0.78 9.03 2.34 1.953 1.56 2.93 3.917 2.93 7.07v0c0 4.413-2.223 7.387-6.67 8.92v0l9.02 14.94h-4.58zM90.32 33.21c-2.667-3.013-4-7.24-4-12.68 0-5.433 1.337-9.637 4.01-12.61 2.673-2.973 6.433-4.46 11.28-4.46 4.84 0 8.603 1.513 11.29 4.54 2.693 3.02 4.04 7.197 4.04 12.53 0 5.333-1.35 9.527-4.05 12.58-2.693 3.053-6.463 4.58-11.31 4.58-4.847 0-8.6-1.493-11.26-4.48zM110.04 10.36c-1.873-2.307-4.65-3.46-8.33-3.46-3.687 0-6.49 1.16-8.41 3.48-1.92 2.327-2.88 5.727-2.88 10.2 0 4.48 0.96 7.887 2.88 10.22 1.92 2.333 4.717 3.5 8.39 3.5 3.673 0 6.45-1.16 8.33-3.48 1.88-2.313 2.82-5.727 2.82-10.24 0-4.507-0.933-7.913-2.8-10.22zM133.24 7.35h-5.03v12.72h5.31c2.713 0 4.71-0.537 5.99-1.61 1.28-1.067 1.92-2.697 1.92-4.89 0-2.193-0.65-3.777-1.95-4.75-1.293-0.98-3.373-1.47-6.24-1.47zM135.14 23.4h-6.93v13.83h-3.87v-33.27h9.13c4.06 0 7.067 0.78 9.02 2.34 1.953 1.56 2.93 3.917 2.93 7.07v0c0 4.413-2.223 7.387-6.67 8.92v0l9.03 14.94h-4.58z" fill="#000000" fill-rule="nonzero" stroke="none" stroke-width="1" stroke-linecap="butt" stroke-linejoin="miter" stroke-miterlimit="10" stroke-dasharray="" stroke-dashoffset="0" font-family="none" font-weight="none" font-size="none" text-anchor="none" style="mix-blend-mode: normal" data-fill-palette-color="primary" opacity="1"></path></g></svg></g></svg></g></svg></g></svg></g><g transform="matrix(1,0,0,1,0,0.4903808668125862)"><svg viewBox="0 0 199.55268931524583 196.1523467250379" height="196.1523467250379" width="199.55268931524583"><g><svg xmlns="http://www.w3.org/2000/svg" xmlns:xlink="http://www.w3.org/1999/xlink" version="1.1" x="0" y="0" viewBox="-345.9993896484375 257.947998046875 99.75178527832031 98.05203247070312" enable-background="new -346 256 100 100" xml:space="preserve" width="199.55268931524583" height="196.1523467250379" class="icon-icon-0" data-fill-palette-color="accent" id="icon-0"><path d="M-246.455 327.152l-16.86-64.454c0 0-1.243-4.756-6.002-4.75l-72.96 0.08c0 0-4.759 0.004-3.515 4.761l15.835 60.538c7.148-15.684 15.203-33.301 15.795-34.599l0.423-0.924 21.84-0.021-1.048 2.253c-5.985 12.87-13.768 29.775-19.236 41.944l62.212-0.067C-249.97 331.912-245.211 331.906-246.455 327.152z" fill="#000000" data-fill-palette-color="accent"></path><path d="M-296.864 290.954l-14.839 0.015c-9.094 19.892-25.758 56.396-26.425 58.074-1.594 4.007 0.346 6.235 1.171 6.957h56.176l-1.875-4.804h-35.137c-0.044 0.002-0.107 0.005-0.184 0.005-1.988 0-3.998-1.204-4.006-3.894-0.002-0.629-0.004-1.579 13.149-30.369C-303.924 306.194-298.966 295.487-296.864 290.954z" fill="#000000" data-fill-palette-color="accent"></path></svg></g></svg></g></svg></g><defs></defs></svg><rect width="395.52" height="120.73791708024731" fill="none" stroke="none" visibility="hidden"></rect></g></svg></g></svg>